<svg width="32" height="32" viewBox="0 0 32 32" fill="none" xmlns="http://www.w3.org/2000/svg">
<path opacity="0.3" d="M24.6667 12.0004C25.1183 11.9987 25.5507 11.9378 25.9641 11.8178C25.9881 12.0995 26.0001 12.384 26.0001 12.6711V18.0044L27.8907 22.2178C27.9767 22.4105 28.0131 22.6216 27.9968 22.832C27.9804 23.0423 27.9118 23.2453 27.7971 23.4224C27.6823 23.5995 27.5252 23.7451 27.3399 23.8461C27.1546 23.947 26.9471 24.0001 26.7361 24.0004H5.26939C5.0581 24.0004 4.85017 23.9475 4.66455 23.8466C4.47892 23.7457 4.32149 23.5999 4.20659 23.4226C4.09169 23.2453 4.02297 23.042 4.00669 22.8314C3.99042 22.6207 4.0271 22.4093 4.11339 22.2164L6.00006 18.0031V12.6538L6.00672 12.3204C6.27472 4.6551 14.7174 0.13377 21.2467 4.15644C18.8014 6.7871 20.1201 11.0804 23.6214 11.8831C23.9643 11.9615 24.315 12.0008 24.6667 12.0004Z" fill="#696C80"/>
<path d="M24.6668 10.6667C27.2335 10.6667 28.8362 7.88933 27.5535 5.66667C27.2609 5.15995 26.8402 4.73916 26.3334 4.4466C25.8267 4.15404 25.2519 4.00001 24.6668 4C22.1002 4 20.4975 6.77733 21.7802 9C22.0727 9.50672 22.4935 9.9275 23.0002 10.2201C23.5069 10.5126 24.0817 10.6667 24.6668 10.6667ZM19.9442 25.3373C19.4308 28.3733 15.8242 29.7147 13.4508 27.752C12.7113 27.1405 12.2164 26.2835 12.0562 25.3373H19.9442Z" fill="#696C80"/>
<path d="M24.6668 10.6667C27.2298 10.6667 28.8301 7.88933 27.5493 5.66667C27.2572 5.15995 26.837 4.73916 26.331 4.4466C25.825 4.15404 25.2511 4.00001 24.6668 4C22.1039 4 20.5036 6.77733 21.7844 9C22.0765 9.50672 22.4967 9.9275 23.0026 10.2201C23.5086 10.5126 24.0826 10.6667 24.6668 10.6667Z" fill="#DE114F"/>
</svg>
