<svg width="24" height="24" viewBox="0 0 24 24" fill="none" xmlns="http://www.w3.org/2000/svg">
<path opacity="0.5" d="M21 15.998V9.998C21 7.17 21 5.756 20.121 4.877C19.353 4.109 18.175 4.012 16 4H8C5.825 4.012 4.647 4.109 3.879 4.877C3 5.756 3 7.17 3 9.998V15.998C3 18.827 3 20.241 3.879 21.12C4.757 21.998 6.172 21.998 9 21.998H15C17.828 21.998 19.243 21.998 20.121 21.12C21 20.24 21 18.827 21 15.998Z" fill="#9A9EB2"/>
<path d="M8 3.5C8 3.10218 8.15804 2.72064 8.43934 2.43934C8.72064 2.15804 9.10218 2 9.5 2H14.5C14.8978 2 15.2794 2.15804 15.5607 2.43934C15.842 2.72064 16 3.10218 16 3.5V4.5C16 4.89782 15.842 5.27936 15.5607 5.56066C15.2794 5.84196 14.8978 6 14.5 6H9.5C9.10218 6 8.72064 5.84196 8.43934 5.56066C8.15804 5.27936 8 4.89782 8 4.5V3.5ZM9 12.697C9 13.681 10.165 14.721 11.043 15.366C11.463 15.674 11.673 15.828 12 15.828C12.328 15.828 12.537 15.674 12.957 15.366C13.835 14.721 15 13.681 15 12.696C15 11.024 13.35 10.399 12 11.691C10.65 10.399 9 11.023 9 12.697Z" fill="#9A9EB2"/>
</svg>
