<svg width="14" height="14" viewBox="0 0 14 14" fill="none" xmlns="http://www.w3.org/2000/svg">
<path opacity="0.5" d="M12.8332 7.00033C12.8332 10.2221 10.2216 12.8337 6.99984 12.8337C3.77809 12.8337 1.1665 10.2221 1.1665 7.00033C1.1665 3.77858 3.77809 1.16699 6.99984 1.16699C10.2216 1.16699 12.8332 3.77858 12.8332 7.00033Z" fill="#FF616D"/>
<path d="M5.23244 5.23202C5.31447 5.15009 5.42567 5.10407 5.54161 5.10407C5.65755 5.10407 5.76874 5.15009 5.85077 5.23202L6.99994 6.38119L8.14911 5.23202C8.18916 5.18904 8.23746 5.15456 8.29113 5.13065C8.34479 5.10674 8.40273 5.09388 8.46147 5.09284C8.52021 5.09181 8.57856 5.10261 8.63304 5.12462C8.68752 5.14662 8.737 5.17937 8.77855 5.22091C8.82009 5.26246 8.85284 5.31195 8.87485 5.36642C8.89685 5.4209 8.90766 5.47925 8.90662 5.53799C8.90558 5.59673 8.89273 5.65467 8.86881 5.70833C8.8449 5.762 8.81042 5.8103 8.76744 5.85035L7.61827 6.99952L8.76744 8.14869C8.84472 8.23162 8.88679 8.34132 8.88479 8.45466C8.88279 8.568 8.83688 8.67614 8.75672 8.7563C8.67656 8.83646 8.56842 8.88237 8.45508 8.88437C8.34174 8.88637 8.23204 8.8443 8.14911 8.76702L6.99994 7.61785L5.85077 8.76702C5.76784 8.8443 5.65815 8.88637 5.5448 8.88437C5.43146 8.88237 5.32332 8.83646 5.24316 8.7563C5.163 8.67614 5.11709 8.568 5.11509 8.45466C5.11309 8.34132 5.15516 8.23162 5.23244 8.14869L6.38161 6.99952L5.23244 5.85035C5.15051 5.76832 5.10449 5.65712 5.10449 5.54119C5.10449 5.42525 5.15051 5.31405 5.23244 5.23202Z" fill="#FF616D"/>
</svg>
