<svg width="24" height="24" viewBox="0 0 24 24" fill="none" xmlns="http://www.w3.org/2000/svg">
<path opacity="0.5" d="M3.464 20.536C4.93 22 7.286 22 12 22C16.714 22 19.071 22 20.535 20.535C22 19.072 22 16.714 22 12C22 7.286 22 4.929 20.535 3.464C19.072 2 16.714 2 12 2C7.286 2 4.929 2 3.464 3.464C2 4.93 2 7.286 2 12C2 16.714 2 19.072 3.464 20.536Z" fill="#12131A"/>
<path d="M8.397 17.447C8.45572 17.5262 8.52948 17.593 8.61405 17.6436C8.69862 17.6943 8.79235 17.7278 8.88987 17.7422C8.98739 17.7566 9.08679 17.7516 9.18239 17.7275C9.27799 17.7035 9.3679 17.6608 9.447 17.602C10.1839 17.0502 11.0794 16.7514 12 16.75C12.9206 16.7514 13.8161 17.0502 14.553 17.602C14.6319 17.6634 14.7222 17.7084 14.8187 17.7343C14.9151 17.7603 15.0158 17.7667 15.1148 17.7532C15.2138 17.7397 15.3092 17.7066 15.3952 17.6558C15.4812 17.6049 15.5562 17.5374 15.6158 17.4572C15.6753 17.377 15.7183 17.2857 15.742 17.1886C15.7658 17.0916 15.77 16.9908 15.7543 16.8921C15.7385 16.7934 15.7033 16.6989 15.6505 16.614C15.5977 16.5292 15.5285 16.4557 15.447 16.398C14.4516 15.6541 13.2426 15.2515 12 15.25C10.7574 15.2515 9.54841 15.6541 8.553 16.398C8.39323 16.5164 8.28704 16.6935 8.25778 16.8902C8.22853 17.0869 8.2786 17.2872 8.397 17.447ZM15 12C15.552 12 16 11.328 16 10.5C16 9.672 15.552 9 15 9C14.448 9 14 9.672 14 10.5C14 11.328 14.448 12 15 12ZM9 12C9.552 12 10 11.328 10 10.5C10 9.672 9.552 9 9 9C8.448 9 8 9.672 8 10.5C8 11.328 8.448 12 9 12Z" fill="#12131A"/>
</svg>
