<svg width="16" height="16" viewBox="0 0 16 16" fill="none" xmlns="http://www.w3.org/2000/svg">
<path opacity="0.3" d="M5.91991 3.33337H4.15991L3.15991 5.33337H4.91991L5.91991 3.33337ZM12.8399 5.33337L11.8399 3.33337H10.0799L11.0799 5.33337H12.8399ZM7.33325 11.12V6.66671H3.62658L7.33325 11.12ZM8.66658 11.12L12.3732 6.66671H8.66658V11.12ZM8.58658 3.33337H7.41325L6.41325 5.33337H9.58658L8.58658 3.33337Z" fill="#87D4F7"/>
<path d="M12.6666 2H3.33325L1.33325 6L7.99992 14L14.6666 6L12.6666 2ZM11.8399 3.33333L12.8399 5.33333H11.0733L10.0733 3.33333H11.8399ZM4.15992 3.33333H5.92659L4.92659 5.33333H3.15992L4.15992 3.33333ZM7.33325 11.12L3.62659 6.66667H7.33325V11.12ZM6.41325 5.33333L7.41325 3.33333H8.58659L9.58659 5.33333H6.41325ZM8.66659 11.12V6.66667H12.3733L8.66659 11.12Z" fill="#87D4F7"/>
</svg>
