<svg width="16" height="16" viewBox="0 0 16 16" fill="none" xmlns="http://www.w3.org/2000/svg">
<g clip-path="url(#clip0_1020_4757)">
<mask id="mask0_1020_4757" style="mask-type:alpha" maskUnits="userSpaceOnUse" x="0" y="0" width="16" height="16">
<ellipse cx="7.99984" cy="7.99972" rx="7.33333" ry="7.33322" fill="#D9D9D9"/>
</mask>
<g mask="url(#mask0_1020_4757)">
<rect width="16" height="15.9997" fill="#FFB37C"/>
</g>
<path d="M7.63196 4.03983C7.74815 3.98867 7.87373 3.96229 8.00069 3.9624C8.12757 3.96243 8.25305 3.98891 8.36912 4.04014C8.48519 4.09136 8.58932 4.16622 8.67484 4.25993C8.76037 4.35365 8.82543 4.46416 8.86587 4.58442C8.9063 4.70467 8.92123 4.83204 8.9097 4.95839L8.54569 8.96432C8.53154 9.099 8.46802 9.22368 8.36739 9.31429C8.26675 9.40491 8.13612 9.45505 8.00069 9.45505C7.86527 9.45505 7.73464 9.40491 7.634 9.31429C7.53337 9.22368 7.46985 9.099 7.45569 8.96432L7.09069 4.95839C7.07915 4.83195 7.09411 4.7045 7.1346 4.58418C7.1751 4.46385 7.24025 4.35329 7.32588 4.25957C7.41152 4.16584 7.51576 4.091 7.63196 4.03983Z" fill="white"/>
<path d="M8.87306 11.1648C8.87306 11.6466 8.4825 12.0371 8.00073 12.0371C7.51896 12.0371 7.12841 11.6466 7.12841 11.1648C7.12841 10.683 7.51896 10.2925 8.00073 10.2925C8.4825 10.2925 8.87306 10.683 8.87306 11.1648Z" fill="white"/>
</g>
<defs>
<clipPath id="clip0_1020_4757">
<rect width="16" height="15.9997" fill="white"/>
</clipPath>
</defs>
</svg>
