<svg width="24" height="24" viewBox="0 0 24 24" fill="none" xmlns="http://www.w3.org/2000/svg">
<path opacity="0.5" d="M12 22C7.286 22 4.929 22 3.464 20.535C2 19.072 2 16.714 2 12C2 7.286 2 4.929 3.464 3.464C4.93 2 7.286 2 12 2C16.714 2 19.071 2 20.535 3.464C22 4.93 22 7.286 22 12C22 16.714 22 19.071 20.535 20.535C19.072 22 16.714 22 12 22Z" fill="white"/>
<path d="M8.96983 8.97015C9.11045 8.8297 9.30108 8.75081 9.49983 8.75081C9.69858 8.75081 9.8892 8.8297 10.0298 8.97015L11.9998 10.9402L13.9698 8.97015C14.0385 8.89647 14.1213 8.83736 14.2133 8.79637C14.3053 8.75538 14.4046 8.73334 14.5053 8.73156C14.606 8.72979 14.706 8.74831 14.7994 8.78603C14.8928 8.82375 14.9776 8.8799 15.0489 8.95112C15.1201 9.02233 15.1762 9.10717 15.214 9.20056C15.2517 9.29394 15.2702 9.39397 15.2684 9.49468C15.2666 9.59538 15.2446 9.69469 15.2036 9.78669C15.1626 9.87869 15.1035 9.96149 15.0298 10.0302L13.0598 12.0002L15.0298 13.9702C15.1035 14.0388 15.1626 14.1216 15.2036 14.2136C15.2446 14.3056 15.2666 14.4049 15.2684 14.5056C15.2702 14.6063 15.2517 14.7064 15.214 14.7998C15.1762 14.8931 15.1201 14.978 15.0489 15.0492C14.9776 15.1204 14.8928 15.1766 14.7994 15.2143C14.706 15.252 14.606 15.2705 14.5053 15.2687C14.4046 15.267 14.3053 15.2449 14.2133 15.2039C14.1213 15.1629 14.0385 15.1038 13.9698 15.0302L11.9998 13.0602L10.0298 15.0302C9.88765 15.1626 9.69961 15.2348 9.50531 15.2313C9.31101 15.2279 9.12562 15.1492 8.98821 15.0118C8.85079 14.8744 8.77208 14.689 8.76865 14.4947C8.76522 14.3004 8.83735 14.1123 8.96983 13.9702L10.9398 12.0002L8.96983 10.0302C8.82938 9.88953 8.75049 9.6989 8.75049 9.50015C8.75049 9.3014 8.82938 9.11078 8.96983 8.97015Z" fill="white"/>
</svg>
