<svg width="16" height="16" viewBox="0 0 16 16" fill="none" xmlns="http://www.w3.org/2000/svg">
<path opacity="0.5" d="M8.00016 14.6663C11.6822 14.6663 14.6668 11.6817 14.6668 7.99967C14.6668 4.31767 11.6822 1.33301 8.00016 1.33301C4.31816 1.33301 1.3335 4.31767 1.3335 7.99967C1.3335 11.6817 4.31816 14.6663 8.00016 14.6663Z" fill="#BFBFBF"/>
<path d="M9.93205 7.48262C10.2874 7.38729 10.4601 6.87729 10.3174 6.34395C10.1747 5.81062 9.77005 5.45529 9.41405 5.55062C9.05872 5.64595 8.88605 6.15529 9.02939 6.68929C9.17205 7.22262 9.57605 7.57795 9.93205 7.48262ZM6.06805 8.51795C6.42405 8.42262 6.59605 7.91262 6.45339 7.37929C6.31072 6.84595 5.90672 6.49062 5.55072 6.58595C5.19472 6.68129 5.02272 7.19062 5.16539 7.72462C5.30805 8.25862 5.71205 8.61329 6.06805 8.51795ZM5.45672 10.5006C5.4727 10.4369 5.50106 10.377 5.54019 10.3243C5.57933 10.2715 5.62846 10.227 5.6848 10.1933C5.74113 10.1596 5.80356 10.1372 5.86852 10.1276C5.93348 10.118 5.9997 10.1213 6.06339 10.1373C6.81672 10.326 7.68205 10.3286 8.56072 10.0933C9.43939 9.85729 10.1874 9.42262 10.7461 8.88262C10.7932 8.83655 10.8489 8.80024 10.9101 8.77578C10.9713 8.75132 11.0367 8.7392 11.1026 8.7401C11.1685 8.74101 11.2335 8.75493 11.294 8.78107C11.3545 8.8072 11.4092 8.84503 11.455 8.89239C11.5008 8.93974 11.5368 8.99568 11.561 9.057C11.5851 9.11831 11.5969 9.18379 11.5956 9.24967C11.5943 9.31555 11.58 9.38053 11.5536 9.44087C11.5271 9.50121 11.489 9.55573 11.4414 9.60129C11.2045 9.82963 10.948 10.0367 10.6747 10.22L10.7807 10.4346C10.839 10.5526 10.8735 10.6808 10.8821 10.8121C10.8907 10.9434 10.8734 11.075 10.831 11.1996C10.7887 11.3241 10.7222 11.4391 10.6354 11.5379C10.5485 11.6367 10.443 11.7174 10.3249 11.7754C10.2068 11.8334 10.0785 11.8675 9.94718 11.8758C9.81589 11.884 9.68425 11.8663 9.55982 11.8236C9.43538 11.781 9.32059 11.7141 9.22202 11.627C9.12345 11.5399 9.04304 11.4342 8.98539 11.316L8.85472 11.0493L8.81939 11.0586C7.78272 11.3366 6.74472 11.3386 5.82005 11.1073C5.75636 11.0913 5.69644 11.0629 5.64371 11.0238C5.59098 10.9847 5.54647 10.9355 5.51273 10.8792C5.47899 10.8229 5.45668 10.7604 5.44707 10.6955C5.43746 10.6305 5.44074 10.5643 5.45672 10.5006Z" fill="#BFBFBF"/>
</svg>
