<svg width="32" height="32" viewBox="0 0 32 32" fill="none" xmlns="http://www.w3.org/2000/svg">
<path opacity="0.5" d="M2.6665 12.4236C2.6665 17.3956 8.0265 22.6542 11.9492 25.8369C13.7252 27.2796 14.6132 27.9996 15.9998 27.9996C17.3865 27.9996 18.2745 27.2796 20.0505 25.8382C23.9745 22.6529 29.3332 17.3956 29.3332 12.4222C29.3332 4.11555 21.9998 1.01422 15.9998 7.43155C9.99984 1.01422 2.6665 4.11555 2.6665 12.4236Z" fill="#BFBFBF"/>
<path fill-rule="evenodd" clip-rule="evenodd" d="M22.0002 8.33301C22.2654 8.33301 22.5197 8.43836 22.7073 8.6259C22.8948 8.81344 23.0002 9.06779 23.0002 9.33301V10.9997H24.6668C24.932 10.9997 25.1864 11.105 25.3739 11.2926C25.5615 11.4801 25.6668 11.7345 25.6668 11.9997C25.6668 12.2649 25.5615 12.5192 25.3739 12.7068C25.1864 12.8943 24.932 12.9997 24.6668 12.9997H23.0002V14.6663C23.0002 14.9316 22.8948 15.1859 22.7073 15.3734C22.5197 15.561 22.2654 15.6663 22.0002 15.6663C21.7349 15.6663 21.4806 15.561 21.2931 15.3734C21.1055 15.1859 21.0002 14.9316 21.0002 14.6663V12.9997H19.3335C19.0683 12.9997 18.8139 12.8943 18.6264 12.7068C18.4389 12.5192 18.3335 12.2649 18.3335 11.9997C18.3335 11.7345 18.4389 11.4801 18.6264 11.2926C18.8139 11.105 19.0683 10.9997 19.3335 10.9997H21.0002V9.33301C21.0002 9.06779 21.1055 8.81344 21.2931 8.6259C21.4806 8.43836 21.7349 8.33301 22.0002 8.33301Z" fill="#BFBFBF"/>
</svg>
