<svg width="32" height="32" viewBox="0 0 32 32" fill="none" xmlns="http://www.w3.org/2000/svg">
<path opacity="0.5" d="M4 11.6129V22.4502C4 23.8408 4 24.5368 4.37733 25.0609C4.75467 25.5849 5.41467 25.8049 6.73467 26.2449L8.288 26.7622C10.1107 27.3702 11.0213 27.6742 11.94 27.5502L12 27.5422V8.87552C11.8498 8.89789 11.6984 8.91169 11.5467 8.91685C10.8267 8.94218 10.1147 8.70352 8.692 8.23018C6.828 7.60885 5.896 7.29818 5.18667 7.61418C4.9353 7.72602 4.70971 7.88852 4.524 8.09152C4 8.66618 4 9.64752 4 11.6129ZM28 20.3862V9.55018C28 8.15952 28 7.46352 27.6227 6.93952C27.2453 6.41552 26.5853 6.19552 25.2653 5.75552L23.712 5.23818C21.8893 4.63018 20.9787 4.32618 20.06 4.45018L20 4.45685V23.1235C20.1511 23.1013 20.3022 23.0875 20.4533 23.0822C21.1733 23.0569 21.8853 23.2955 23.308 23.7689C25.172 24.3902 26.104 24.7008 26.8133 24.3848C27.0647 24.273 27.2903 24.1105 27.476 23.9075C28 23.3328 28 22.3515 28 20.3862Z" fill="#BFBFBF"/>
<path d="M12.3293 8.81303C12.22 8.83703 12.1102 8.85792 12 8.8757V27.5424C12.8933 27.4037 13.692 26.8717 15.256 25.829L17.0987 24.5997C18.3467 23.7677 18.9707 23.3517 19.672 23.1864C19.7787 23.1597 19.888 23.1388 20 23.1237V4.45703C19.1067 4.59436 18.308 5.1277 16.744 6.16903L14.9013 7.39836C13.6533 8.23036 13.0293 8.64637 12.328 8.8117" fill="#BFBFBF"/>
</svg>
