<svg width="32" height="32" viewBox="0 0 32 32" fill="none" xmlns="http://www.w3.org/2000/svg">
<path d="M12.0562 25.3369H19.9442C19.4308 28.3729 15.8242 29.7142 13.4508 27.7516C12.7113 27.14 12.2164 26.283 12.0562 25.3369Z" fill="#696C80"/>
<path opacity="0.3" d="M16.0001 2.6709C18.6522 2.6709 21.1958 3.72447 23.0711 5.59983C24.9465 7.47519 26.0001 10.0187 26.0001 12.6709V18.0042L27.8907 22.2176C27.9767 22.4103 28.0131 22.6214 27.9968 22.8318C27.9804 23.0421 27.9118 23.2451 27.7971 23.4222C27.6823 23.5993 27.5252 23.7449 27.3399 23.8459C27.1546 23.9468 26.9471 23.9999 26.7361 24.0002H5.26939C5.0581 24.0002 4.85017 23.9473 4.66455 23.8464C4.47892 23.7455 4.32149 23.5997 4.20659 23.4224C4.09169 23.2451 4.02297 23.0418 4.00669 22.8312C3.99042 22.6205 4.0271 22.4091 4.11339 22.2162L6.00006 18.0029V12.6536L6.00672 12.3202C6.09793 9.7307 7.19072 7.27767 9.05486 5.47795C10.919 3.67823 13.4089 2.67102 16.0001 2.6709Z" fill="#696C80"/>
</svg>
