<svg width="58" height="58" viewBox="0 0 58 58" fill="none" xmlns="http://www.w3.org/2000/svg">
<path d="M25.3752 8.69995C24.7983 8.69995 24.2451 8.9291 23.8372 9.33699C23.4293 9.74489 23.2002 10.2981 23.2002 10.875C23.2002 11.4518 23.4293 12.005 23.8372 12.4129C24.2451 12.8208 24.7983 13.05 25.3752 13.05H32.6252C33.202 13.05 33.7553 12.8208 34.1632 12.4129C34.571 12.005 34.8002 11.4518 34.8002 10.875C34.8002 10.2981 34.571 9.74489 34.1632 9.33699C33.7553 8.9291 33.202 8.69995 32.6252 8.69995H25.3752ZM25.3752 44.95C24.7983 44.95 24.2451 45.1791 23.8372 45.587C23.4293 45.9949 23.2002 46.5481 23.2002 47.125C23.2002 47.7018 23.4293 48.255 23.8372 48.6629C24.2451 49.0708 24.7983 49.2999 25.3752 49.2999H32.6252C33.202 49.2999 33.7553 49.0708 34.1632 48.6629C34.571 48.255 34.8002 47.7018 34.8002 47.125C34.8002 46.5481 34.571 45.9949 34.1632 45.587C33.7553 45.1791 33.202 44.95 32.6252 44.95H25.3752ZM15.8139 13.3487C14.6916 13.7866 13.7955 14.6827 13.3518 15.8021C13.2739 16.0904 13.1374 16.3595 12.9509 16.5928C12.7645 16.8261 12.5319 17.0184 12.2678 17.1579C12.0038 17.2974 11.7138 17.381 11.416 17.4035C11.1182 17.426 10.8189 17.3869 10.5369 17.2887C10.2549 17.1905 9.99607 17.0352 9.77664 16.8327C9.55722 16.6301 9.38187 16.3844 9.26152 16.1111C9.14118 15.8378 9.07841 15.5426 9.07713 15.244C9.07585 14.9453 9.13609 14.6496 9.2541 14.3753H9.2396C9.67513 13.2005 10.3592 12.1337 11.2452 11.2478C12.1311 10.3619 13.1979 9.67779 14.3726 9.24225V9.25385C14.6462 9.13734 14.9408 9.07817 15.2381 9.08C15.5355 9.08183 15.8293 9.14461 16.1015 9.26448C16.3736 9.38434 16.6183 9.55874 16.8204 9.77689C17.0225 9.99504 17.1777 10.2523 17.2764 10.5328C17.3751 10.8133 17.4153 11.1111 17.3944 11.4077C17.3735 11.7044 17.292 11.9936 17.155 12.2575C17.0179 12.5214 16.8282 12.7543 16.5975 12.942C16.3668 13.1297 16.1001 13.2681 15.8139 13.3487ZM44.6515 15.8021C44.415 15.2027 44.0482 14.6633 43.5778 14.223C43.1074 13.7826 42.545 13.4523 41.9313 13.2559C41.4184 13.0188 41.0178 12.5915 40.8144 12.0643C40.611 11.5371 40.6208 10.9515 40.8417 10.4313C41.0625 9.91123 41.4771 9.49749 41.9977 9.27772C42.5183 9.05794 43.1039 9.04938 43.6307 9.25385V9.23935C44.8054 9.67489 45.8722 10.359 46.7581 11.2449C47.644 12.1308 48.3282 13.1976 48.7637 14.3724H48.7492C48.8663 14.6465 48.9258 14.9417 48.924 15.2398C48.9222 15.5378 48.8591 15.8324 48.7388 16.1051C48.6184 16.3777 48.4433 16.6228 48.2242 16.8249C48.0052 17.0271 47.747 17.1821 47.4655 17.2803C47.1841 17.3785 46.8855 17.4178 46.5882 17.3957C46.291 17.3737 46.0014 17.2908 45.7375 17.1522C45.4737 17.0136 45.2411 16.8222 45.0543 16.5899C44.8674 16.3577 44.7303 16.0895 44.6515 15.8021ZM10.8752 34.7999C10.2983 34.7999 9.74513 34.5708 9.33724 34.1629C8.92935 33.755 8.7002 33.2018 8.7002 32.625V25.375C8.7002 24.7981 8.92935 24.2449 9.33724 23.837C9.74513 23.4291 10.2983 23.2 10.8752 23.2C11.452 23.2 12.0053 23.4291 12.4132 23.837C12.821 24.2449 13.0502 24.7981 13.0502 25.375V32.625C13.0502 33.2018 12.821 33.755 12.4132 34.1629C12.0053 34.5708 11.452 34.7999 10.8752 34.7999ZM44.9502 32.625C44.9502 33.2018 45.1793 33.755 45.5872 34.1629C45.9951 34.5708 46.5483 34.7999 47.1252 34.7999C47.702 34.7999 48.2553 34.5708 48.6632 34.1629C49.071 33.755 49.3002 33.2018 49.3002 32.625V25.375C49.3002 24.7981 49.071 24.2449 48.6632 23.837C48.2553 23.4291 47.702 23.2 47.1252 23.2C46.5483 23.2 45.9951 23.4291 45.5872 23.837C45.1793 24.2449 44.9502 24.7981 44.9502 25.375V32.625ZM15.8139 44.6541C15.2569 44.4364 14.7508 44.1062 14.3272 43.684C13.9035 43.2619 13.5715 42.757 13.3518 42.2007C13.2739 41.9124 13.1374 41.6433 12.9509 41.41C12.7645 41.1767 12.5319 40.9844 12.2678 40.8449C12.0038 40.7054 11.7138 40.6218 11.416 40.5993C11.1182 40.5768 10.8189 40.6159 10.5369 40.7141C10.2549 40.8123 9.99607 40.9676 9.77664 41.1701C9.55722 41.3727 9.38187 41.6184 9.26152 41.8917C9.14118 42.165 9.07841 42.4602 9.07713 42.7588C9.07585 43.0575 9.13609 43.3532 9.2541 43.6275H9.2396C9.67513 44.8023 10.3592 45.8691 11.2452 46.755C12.1311 47.6409 13.1979 48.325 14.3726 48.7605V48.7489C14.6462 48.8655 14.9408 48.9246 15.2381 48.9228C15.5355 48.921 15.8293 48.8582 16.1015 48.7383C16.3736 48.6185 16.6183 48.4441 16.8204 48.2259C17.0225 48.0078 17.1777 47.7505 17.2764 47.47C17.3751 47.1895 17.4153 46.8917 17.3944 46.5951C17.3735 46.2984 17.292 46.0092 17.155 45.7453C17.0179 45.4814 16.8282 45.2485 16.5975 45.0608C16.3668 44.8731 16.1001 44.7347 15.8139 44.6541ZM44.6515 42.2007C44.415 42.8001 44.0482 43.3395 43.5778 43.7798C43.1074 44.2202 42.545 44.5505 41.9313 44.747C41.4184 44.984 41.0178 45.4113 40.8144 45.9385C40.611 46.4657 40.6208 47.0513 40.8417 47.5715C41.0625 48.0916 41.4771 48.5053 41.9977 48.7251C42.5183 48.9449 43.1039 48.9534 43.6307 48.7489V48.7635C44.8054 48.3279 45.8722 47.6438 46.7581 46.7579C47.644 45.872 48.3282 44.8052 48.7637 43.6305H48.7492C48.8663 43.3563 48.9258 43.0611 48.924 42.763C48.9222 42.465 48.8591 42.1704 48.7388 41.8978C48.6184 41.6251 48.4433 41.38 48.2242 41.1779C48.0052 40.9757 47.747 40.8207 47.4655 40.7225C47.1841 40.6243 46.8855 40.585 46.5882 40.6071C46.291 40.6291 46.0014 40.712 45.7375 40.8506C45.4737 40.9892 45.2411 41.1806 45.0543 41.4129C44.8674 41.6451 44.7303 41.9133 44.6515 42.2007Z" fill="#EBECF2"/>
</svg>
