<svg width="24" height="24" viewBox="0 0 24 24" fill="none" xmlns="http://www.w3.org/2000/svg">
<path opacity="0.5" d="M3.464 20.536C4.93 22 7.286 22 12 22C16.714 22 19.071 22 20.535 20.535C22 19.072 22 16.714 22 12C22 7.286 22 4.929 20.535 3.464C19.072 2 16.714 2 12 2C7.286 2 4.929 2 3.464 3.464C2 4.93 2 7.286 2 12C2 16.714 2 19.072 3.464 20.536Z" fill="#12131A"/>
<path d="M9.447 15.398C9.36814 15.3366 9.27782 15.2916 9.18134 15.2657C9.08486 15.2397 8.98416 15.2333 8.88516 15.2468C8.78615 15.2603 8.69084 15.2934 8.60483 15.3442C8.51881 15.3951 8.44381 15.4626 8.38424 15.5428C8.32468 15.623 8.28174 15.7143 8.25796 15.8114C8.23417 15.9084 8.23002 16.0092 8.24574 16.1079C8.26146 16.2066 8.29674 16.3011 8.3495 16.386C8.40227 16.4708 8.47145 16.5443 8.553 16.602C9.54841 17.3459 10.7574 17.7485 12 17.75C13.2426 17.7485 14.4516 17.3459 15.447 16.602C15.5285 16.5443 15.5977 16.4708 15.6505 16.386C15.7033 16.3011 15.7385 16.2066 15.7543 16.1079C15.77 16.0092 15.7658 15.9084 15.742 15.8114C15.7183 15.7143 15.6753 15.623 15.6158 15.5428C15.5562 15.4626 15.4812 15.3951 15.3952 15.3442C15.3092 15.2934 15.2138 15.2603 15.1148 15.2468C15.0158 15.2333 14.9151 15.2397 14.8187 15.2657C14.7222 15.2916 14.6319 15.3366 14.553 15.398C13.8161 15.9498 12.9206 16.2486 12 16.25C11.0794 16.2486 10.1839 15.9498 9.447 15.398ZM16 10.5C16 11.328 15.552 12 15 12C14.448 12 14 11.328 14 10.5C14 9.672 14.448 9 15 9C15.552 9 16 9.672 16 10.5ZM10 10.5C10 11.328 9.552 12 9 12C8.448 12 8 11.328 8 10.5C8 9.672 8.448 9 9 9C9.552 9 10 9.672 10 10.5Z" fill="#12131A"/>
</svg>
