<svg width="16" height="16" viewBox="0 0 16 16" fill="none" xmlns="http://www.w3.org/2000/svg">
<g clip-path="url(#clip0_1020_4548)">
<mask id="mask0_1020_4548" style="mask-type:alpha" maskUnits="userSpaceOnUse" x="0" y="0" width="16" height="16">
<circle cx="7.99984" cy="7.99984" r="7.33333" fill="#D9D9D9"/>
</mask>
<g mask="url(#mask0_1020_4548)">
<rect width="16" height="16" fill="#12131A"/>
</g>
<path fill-rule="evenodd" clip-rule="evenodd" d="M6.42219 7.20901C6.42219 6.84082 6.72066 6.54235 7.08885 6.54235H8.00004C8.36823 6.54235 8.66671 6.84082 8.66671 7.20901V10.3135H9.47062C9.83881 10.3135 10.1373 10.612 10.1373 10.9802C10.1373 11.3484 9.83881 11.6469 9.47062 11.6469H6.52946C6.16127 11.6469 5.86279 11.3484 5.86279 10.9802C5.86279 10.612 6.16127 10.3135 6.52946 10.3135H7.33337V7.87568H7.08885C6.72066 7.87568 6.42219 7.5772 6.42219 7.20901Z" fill="white"/>
<path d="M8.82179 5.22584C8.82179 5.70761 8.43123 6.09816 7.94946 6.09816C7.46769 6.09816 7.07714 5.70761 7.07714 5.22584C7.07714 4.74407 7.46769 4.35352 7.94946 4.35352C8.43123 4.35352 8.82179 4.74407 8.82179 5.22584Z" fill="white"/>
</g>
<defs>
<clipPath id="clip0_1020_4548">
<rect width="16" height="16" fill="white"/>
</clipPath>
</defs>
</svg>
