<svg width="90" height="74" viewBox="0 0 90 74" fill="none" xmlns="http://www.w3.org/2000/svg">
<path d="M43.8633 10.5244V31.4804C43.8633 35.4324 45.2153 37.6684 47.6593 37.8764V43.5964H47.5033C41.1593 43.5964 37.4153 39.5404 37.4153 32.7284V10.5244H43.8633ZM27.3793 39.0724C26.1313 41.4124 23.2193 42.9724 19.8393 42.9724C16.5633 42.9724 13.5993 41.5164 12.2993 39.2804C10.8433 41.9324 7.20335 43.5964 3.04335 43.5964H0.235352V37.8764H2.67935C7.04735 37.8764 9.23135 35.3284 9.23135 30.8044V27.4244H5.27935V21.7044H18.8513V27.4244H15.7313V30.8044C15.7313 34.9124 17.1353 37.2004 19.8393 37.2004C22.5433 37.2004 23.9993 34.9124 23.9993 30.8044V27.4244H20.8273V21.7044H34.3993V27.4244H30.4993V30.8044C30.4993 35.0684 32.2153 37.4604 35.3353 37.4604V43.1804C31.9033 43.1804 28.8353 41.5684 27.3793 39.0724ZM20.2033 64.3444V47.1324H43.8113V52.9564H26.7553V61.8484H37.2593V54.9844H43.8113V67.5684H23.5833C21.6073 67.5684 20.2033 66.4244 20.2033 64.3444ZM56.4034 23.4724H74.3954V19.3644H56.0914V13.6444H77.6194C80.2194 13.6444 80.9474 14.3204 80.9474 16.7644V34.0804H74.3954V28.6724H56.4034V23.4724ZM67.7394 31.7404V37.8764H89.7874V43.5964H47.5634V37.8764H61.1874V31.7404H67.7394ZM72.7834 55.2444H79.3354C79.7514 56.1284 80.0114 57.2724 80.0114 58.4164C80.0114 64.5524 75.2274 69.1284 68.5714 69.1284C61.9154 69.1284 57.1314 64.5004 57.1314 58.3124C57.1314 51.9164 61.8114 47.4964 68.5714 47.4964H79.2834V53.2164H68.5714C65.7634 53.2164 63.6834 55.4004 63.6834 58.3124C63.6834 61.2244 65.7634 63.4084 68.5714 63.4084C71.3794 63.4084 73.4594 61.2244 73.4594 58.3124C73.4594 57.2204 73.1994 56.1804 72.7834 55.2444Z" fill="white"/>
<path d="M76.9998 14L76.7186 13.8125C75.3817 12.9197 73.6901 11.9106 72.4373 10.4275C71.117 8.865 70.4836 7.26031 70.4998 5.52125C70.5195 3.57937 72.0767 2 73.9711 2C75.4745 2 76.4742 2.875 76.9998 3.50656C77.5254 2.875 78.5251 2 80.0286 2C81.9229 2 83.4801 3.57937 83.4998 5.52031C83.5173 7.26031 82.8839 8.86406 81.5623 10.4266C80.3095 11.9106 78.6179 12.9197 77.2811 13.8125L76.9998 14Z" fill="white"/>
</svg>
