<svg width="20" height="20" viewBox="0 0 20 20" fill="none" xmlns="http://www.w3.org/2000/svg">
<g clip-path="url(#clip0_868_5885)">
<path opacity="0.5" d="M0.833496 10C0.833496 5.67921 0.833496 3.51837 2.17516 2.17504C3.51933 0.833374 5.68016 0.833374 10.0002 0.833374C14.3202 0.833374 16.4818 0.833374 17.8252 2.17504C19.1668 3.51921 19.1668 5.68004 19.1668 10C19.1668 14.32 19.1668 16.4817 17.8252 17.825C16.481 19.1667 14.3202 19.1667 10.0002 19.1667C5.68016 19.1667 3.5185 19.1667 2.17516 17.825C0.833496 16.4809 0.833496 14.32 0.833496 10Z" fill="#334E71"/>
<path d="M11.6048 11.9184C11.809 11.7592 11.994 11.5742 12.3648 11.2034L16.9815 6.58669C17.0932 6.47502 17.0423 6.28252 16.8932 6.23086C16.1716 5.97765 15.5164 5.5649 14.9765 5.02336C14.4346 4.48351 14.0216 3.82835 13.7682 3.10669C13.7173 2.95669 13.5248 2.90669 13.4132 3.01836L8.79648 7.63502C8.42565 8.00502 8.24065 8.19086 8.08148 8.39502C7.89323 8.63551 7.73198 8.89596 7.60065 9.17169C7.48982 9.40502 7.40648 9.65419 7.24148 10.1509L7.02732 10.7925L6.68648 11.8142L6.36815 12.7709C6.32839 12.8907 6.32272 13.0192 6.35177 13.142C6.38083 13.2648 6.44346 13.3772 6.53267 13.4665C6.62189 13.5558 6.73417 13.6185 6.85699 13.6477C6.9798 13.6769 7.10831 13.6713 7.22815 13.6317L8.18649 13.3125L9.20649 12.9725L9.84815 12.7584C10.3457 12.5925 10.594 12.51 10.8273 12.3984C11.104 12.2667 11.3632 12.1067 11.6048 11.9184ZM18.4273 5.14169C18.9006 4.6685 19.1666 4.02667 19.1666 3.3574C19.1667 2.68813 18.9009 2.04624 18.4277 1.57294C17.9545 1.09964 17.3127 0.833696 16.6434 0.833618C15.9742 0.83354 15.3323 1.09933 14.859 1.57252L14.7098 1.72086C14.6392 1.79044 14.5866 1.87624 14.5566 1.9708C14.5267 2.06535 14.5204 2.16579 14.5382 2.26336C14.5607 2.38836 14.6023 2.57169 14.6782 2.79086C14.8823 3.37588 15.2168 3.90678 15.6565 4.34336C16.0928 4.78292 16.6234 5.11748 17.2082 5.32169C17.4273 5.39669 17.6107 5.43919 17.7357 5.46169C17.9357 5.49752 18.1357 5.43252 18.279 5.28919L18.4273 5.14169Z" fill="#334E71"/>
</g>
<defs>
<clipPath id="clip0_868_5885">
<rect width="20" height="20" fill="white"/>
</clipPath>
</defs>
</svg>
